<svg width="24" height="24" viewBox="0 0 24 24" fill="none" xmlns="http://www.w3.org/2000/svg">
<g clip-path="url(#clip0_68_77)">
<mask id="mask0_68_77" style="mask-type:luminance" maskUnits="userSpaceOnUse" x="0" y="0" width="24" height="24">
<path d="M12.1935 0H11.8065C5.28593 0 0 5.37258 0 12C0 18.6274 5.28593 24 11.8065 24H12.1935C18.7141 24 24 18.6274 24 12C24 5.37258 18.7141 0 12.1935 0Z" fill="white"/>
</mask>
<g mask="url(#mask0_68_77)">
<path d="M26.129 8.7502V12.241L21.8444 10.7894C20.354 10.2845 18.7438 10.2778 17.2496 10.7704L14.2368 11.7635C13.0232 12.1636 11.7213 12.1964 10.4897 11.8581L7.14475 10.9392C5.888 10.594 4.56359 10.594 3.30685 10.9392L-1.5484 12.273V8.75252L3.3505 7.27219C4.57423 6.90243 5.87735 6.90243 7.10108 7.27219L10.2912 8.23616C11.6589 8.64944 13.1153 8.64944 14.483 8.23616L17.6455 7.28053C18.8855 6.90582 20.2067 6.91093 21.4438 7.29513L26.129 8.7502Z" stroke="black"/>
<path d="M26.5313 3.98718L26.4454 7.47689L22.1978 5.91689C20.7204 5.3743 19.1108 5.32673 17.6049 5.7812L14.5686 6.69752C13.3456 7.06661 12.0433 7.06638 10.8204 6.69689L7.49906 5.69334C6.25118 5.3163 4.92723 5.28266 3.66238 5.59584L-1.22415 6.80588L-1.13759 3.28648L3.79618 1.93107C5.02861 1.5925 6.33135 1.6256 7.54559 2.02634L10.711 3.07102C12.0681 3.5189 13.5241 3.5559 14.9015 3.17749L18.0865 2.30249C19.3354 1.95942 20.6559 1.99806 21.8833 2.41358L26.5313 3.98718Z" stroke="black"/>
<path d="M26.9937 -1.16067L26.9079 2.32906L22.6602 0.769044C21.1828 0.226437 19.5733 0.178887 18.0673 0.633358L15.0311 1.54965C13.808 1.91876 12.5058 1.91854 11.2829 1.54902L7.96152 0.54549C6.71364 0.168446 5.38969 0.134806 4.12485 0.448007L-0.761688 1.65801L-0.67513 -1.86138L4.25863 -3.21679C5.49107 -3.55536 6.79381 -3.52226 8.00805 -3.12152L11.1735 -2.07684C12.5305 -1.62895 13.9865 -1.59196 15.3639 -1.97036L18.549 -2.84536C19.7978 -3.18844 21.1184 -3.1498 22.3457 -2.73428L26.9937 -1.16067Z" stroke="black"/>
<path d="M26.129 18.9797V22.4705L21.8444 21.0189C20.354 20.514 18.7438 20.5073 17.2496 20.9999L14.2368 21.9931C13.0232 22.3931 11.7213 22.426 10.4897 22.0876L7.14475 21.1688C5.888 20.8236 4.56359 20.8236 3.30685 21.1688L-1.5484 22.5025V18.982L3.3505 17.5017C4.57423 17.132 5.87735 17.132 7.10108 17.5017L10.2912 18.4657C11.6589 18.879 13.1153 18.879 14.483 18.4657L17.6455 17.5101C18.8855 17.1353 20.2067 17.1405 21.4438 17.5247L26.129 18.9797Z" stroke="black"/>
<path d="M26.129 13.865V17.3558L21.8444 15.9041C20.354 15.3992 18.7438 15.3926 17.2496 15.8852L14.2368 16.8783C13.0232 17.2784 11.7213 17.3112 10.4897 16.9729L7.14475 16.054C5.888 15.7088 4.56359 15.7088 3.30685 16.054L-1.5484 17.3878V13.8673L3.3505 12.387C4.57423 12.0172 5.87735 12.0172 7.10108 12.387L10.2912 13.3509C11.6589 13.7642 13.1153 13.7642 14.483 13.3509L17.6455 12.3953C18.8855 12.0206 20.2067 12.0257 21.4438 12.4099L26.129 13.865Z" stroke="black"/>
</g>
<path d="M12.1935 0.393433H11.8064C5.4997 0.393433 0.387085 5.58987 0.387085 12C0.387085 18.4101 5.4997 23.6065 11.8064 23.6065H12.1935C18.5003 23.6065 23.6129 18.4101 23.6129 12C23.6129 5.58987 18.5003 0.393433 12.1935 0.393433Z" stroke="black"/>
</g>
<defs>
<clipPath id="clip0_68_77">
<rect width="24" height="24" fill="white"/>
</clipPath>
</defs>
</svg>
