<svg width="24" height="24" viewBox="0 0 24 24" fill="none" xmlns="http://www.w3.org/2000/svg">
<path d="M17 18.43H13L8.55 21.39C8.39982 21.4901 8.22528 21.5476 8.045 21.5563C7.86472 21.5649 7.68546 21.5245 7.52635 21.4393C7.36724 21.3541 7.23424 21.2273 7.14154 21.0725C7.04884 20.9176 6.99992 20.7405 7 20.56V18.43C4 18.43 2 16.43 2 13.43V7.42999C2 4.42999 4 2.42999 7 2.42999H17C20 2.42999 22 4.42999 22 7.42999V13.43C22 16.43 20 18.43 17 18.43Z" stroke="black" stroke-width="1.5" stroke-miterlimit="10" stroke-linecap="round" stroke-linejoin="round"/>
<path d="M12 11.36V11.15C12 10.47 12.42 10.11 12.84 9.81998C13.25 9.53998 13.66 9.17999 13.66 8.51999C13.66 7.59999 12.92 6.85999 12 6.85999C11.08 6.85999 10.34 7.59999 10.34 8.51999M11.995 13.75H12.005" stroke="black" stroke-width="1.5" stroke-linecap="round" stroke-linejoin="round"/>
</svg>
