<svg width="100" height="29" viewBox="0 0 100 29" fill="none" xmlns="http://www.w3.org/2000/svg">
<g clip-path="url(#clip0_93_65)">
<path d="M0 15.7285C0 15.2943 0.280139 14.9098 0.693383 14.7766L4.65646 13.5C7.68416 12.5247 10.9578 12.5299 13.9855 13.5052V13.5052C16.9923 14.4738 20.2434 14.4789 23.2502 13.5103V13.5103C26.2967 12.529 29.5765 12.5422 32.6149 13.5482L36.3143 14.773C36.7236 14.9085 37 15.2911 37 15.7223V19.5756C37 20.2686 36.3121 20.7516 35.6603 20.5161L32.8164 19.489C29.6618 18.3496 26.2104 18.3346 23.0461 19.4467V19.4467C20.1719 20.4567 17.0532 20.5395 14.1295 19.6832L13.7495 19.572C10.8526 18.7236 7.77325 18.7236 4.87639 19.572L1.28105 20.6248C0.640814 20.8123 0 20.3323 0 19.6652V15.7285Z" fill="url(#paint0_linear_93_65)"/>
<path d="M0.523214 8.42252C0.53374 7.98424 0.828507 7.60448 1.2503 7.48582L5.20562 6.373C8.24435 5.51806 11.4882 5.60743 14.4821 6.61934V6.61934C17.4554 7.62428 20.6769 7.71303 23.6947 6.86398V6.86398C26.7524 6.00369 30.0021 6.10098 33.0067 7.14275L36.6416 8.40306C37.0533 8.54581 37.3259 8.93848 37.3154 9.37388L37.2291 12.9693C37.2126 13.6568 36.5231 14.1215 35.8791 13.8792L33.0708 12.823C29.9525 11.6501 26.5347 11.5468 23.3556 12.5294V12.5294C20.4689 13.4215 17.3784 13.4205 14.4888 12.5263L14.1081 12.4085C11.2426 11.5218 8.18963 11.4424 5.28515 12.1789L1.68222 13.0926C1.04021 13.2554 0.419052 12.7597 0.434962 12.0972L0.523214 8.42252Z" fill="url(#paint1_linear_93_65)"/>
<path d="M1.12142 1.6029C1.13195 1.16461 1.42671 0.784859 1.8485 0.666189L5.80383 -0.446629C8.84255 -1.30156 12.0864 -1.2122 15.0803 -0.200289V-0.200289C18.0536 0.804651 21.2751 0.8934 24.2929 0.0443535V0.0443535C27.3506 -0.815934 30.6003 -0.718648 33.6049 0.323128L37.2398 1.58343C37.6516 1.72619 37.9241 2.11885 37.9136 2.55425L37.8273 6.14966C37.8108 6.83717 37.1213 7.30186 36.4773 7.0596L33.669 6.00336C30.5507 4.83047 27.1329 4.72718 23.9538 5.70975V5.70975C21.0671 6.60191 17.9766 6.60085 15.087 5.70669L14.7063 5.58889C11.8408 4.7022 8.78783 4.62276 5.88335 5.35931L2.28043 6.27298C1.63841 6.43579 1.01726 5.94006 1.03317 5.27757L1.12142 1.6029Z" fill="url(#paint2_linear_93_65)"/>
<path d="M0 28.4205C0 27.9742 0.295698 27.582 0.724722 27.4591L4.65646 26.3333C7.69962 25.462 10.9423 25.4666 13.9855 26.3379V26.3379C17.0077 27.2033 20.228 27.2079 23.2502 26.3425V26.3425C26.3127 25.4656 29.5614 25.4775 32.6173 26.3769L36.2823 27.4555C36.7078 27.5807 37 27.9712 37 28.4148V31.6287C37 32.3066 36.3398 32.788 35.6943 32.5808L32.8189 31.6577C29.6432 30.6381 26.2301 30.6247 23.0464 31.6191V31.6191C20.1573 32.5216 17.0731 32.5958 14.144 31.8333L13.7491 31.7305C10.8401 30.9733 7.78573 30.9733 4.87674 31.7305L1.25191 32.6741C0.618452 32.839 0 32.3609 0 31.7064V28.4205Z" fill="url(#paint3_linear_93_65)"/>
<path d="M0 22.4205C0 21.9742 0.295698 21.582 0.724722 21.4591L4.65646 20.3333C7.69962 19.462 10.9423 19.4666 13.9855 20.3379V20.3379C17.0077 21.2033 20.228 21.2079 23.2502 20.3425V20.3425C26.3127 19.4656 29.5614 19.4775 32.6173 20.3769L36.2823 21.4555C36.7078 21.5807 37 21.9712 37 22.4148V25.6287C37 26.3066 36.3398 26.788 35.6943 26.5808L32.8189 25.6577C29.6432 24.6381 26.2301 24.6247 23.0464 25.6191V25.6191C20.1573 26.5216 17.0731 26.5958 14.144 25.8333L13.7491 25.7305C10.8401 24.9733 7.78573 24.9733 4.87674 25.7305L1.25191 26.6741C0.618452 26.839 0 26.3609 0 25.7064V22.4205Z" fill="url(#paint4_linear_93_65)"/>
</g>
<path d="M39.7528 10.056H37.1768L35.2728 19H31.8168L33.7208 10.056H31.1768L31.4648 8.84H40.0248L39.7528 10.056ZM38.3965 12.12H41.7885L42.3485 16.824L44.2845 12.12H47.3405L47.8845 16.824L49.8205 12.12H51.5165L48.3325 19H44.9885L44.3965 15.512L42.7805 19H39.4365L38.3965 12.12ZM56.1113 11.944C57.3806 11.944 58.3033 12.168 58.8793 12.616C59.4873 13.0853 59.7913 13.864 59.7913 14.952C59.7913 15.624 59.6793 16.232 59.4553 16.776C59.2313 17.3093 58.9166 17.752 58.5113 18.104C57.7006 18.7867 56.5273 19.128 54.9913 19.128C53.6793 19.128 52.7406 18.8773 52.1753 18.376C51.5673 17.8533 51.2633 17.0693 51.2633 16.024C51.2633 15.3307 51.402 14.7013 51.6793 14.136C51.9673 13.5707 52.378 13.1013 52.9113 12.728C53.69 12.2053 54.7566 11.944 56.1113 11.944ZM55.0233 18.04C55.29 18.04 55.5193 17.8907 55.7113 17.592C55.914 17.2933 56.074 16.9307 56.1913 16.504C56.3086 16.0667 56.394 15.6187 56.4473 15.16C56.5113 14.6907 56.5433 14.2853 56.5433 13.944C56.5433 13.6453 56.5113 13.4213 56.4473 13.272C56.394 13.112 56.2713 13.032 56.0793 13.032C55.7913 13.032 55.5406 13.1867 55.3273 13.496C55.1246 13.8053 54.9593 14.1733 54.8313 14.6C54.7033 15.0267 54.6073 15.464 54.5433 15.912C54.49 16.36 54.4633 16.7227 54.4633 17C54.4633 17.6933 54.65 18.04 55.0233 18.04ZM66.5784 11.784C66.6104 11.624 66.6264 11.4053 66.6264 11.128C66.6264 10.968 66.6157 10.8133 66.5944 10.664C66.5731 10.504 66.5357 10.3653 66.4824 10.248C66.4291 10.12 66.3491 10.024 66.2424 9.96C66.1357 9.88533 65.9971 9.848 65.8264 9.848C65.6344 9.848 65.4584 9.89067 65.2984 9.976C65.1384 10.0613 64.9944 10.1733 64.8664 10.312C64.7491 10.44 64.6531 10.5947 64.5784 10.776C64.5144 10.9467 64.4824 11.128 64.4824 11.32C64.4824 11.5973 64.5517 11.8107 64.6904 11.96C64.8397 12.1093 65.0317 12.232 65.2664 12.328C65.5011 12.424 65.7677 12.504 66.0664 12.568C66.3651 12.632 66.6744 12.7067 66.9944 12.792C67.2611 12.8667 67.5277 12.9627 67.7944 13.08C68.0611 13.1973 68.2957 13.3573 68.4984 13.56C68.7117 13.752 68.8824 14.008 69.0104 14.328C69.1384 14.6373 69.2024 15.0267 69.2024 15.496C69.2024 16.168 69.0691 16.7333 68.8024 17.192C68.5357 17.6507 68.1677 18.024 67.6984 18.312C67.2291 18.6 66.6691 18.808 66.0184 18.936C65.3784 19.064 64.6797 19.128 63.9224 19.128C63.1544 19.128 62.5251 19.08 62.0344 18.984C61.5544 18.8773 61.1757 18.7653 60.8984 18.648C60.5677 18.5093 60.3224 18.3493 60.1624 18.168L60.7064 15.976H63.5224C63.5117 16.072 63.5011 16.2053 63.4904 16.376C63.4797 16.536 63.4744 16.664 63.4744 16.76C63.4744 16.888 63.4904 17.0213 63.5224 17.16C63.5544 17.2987 63.6024 17.4267 63.6664 17.544C63.7411 17.6613 63.8424 17.7573 63.9704 17.832C64.0984 17.9067 64.2584 17.944 64.4504 17.944C64.6637 17.944 64.8504 17.896 65.0104 17.8C65.1811 17.704 65.3197 17.5867 65.4264 17.448C65.5437 17.2987 65.6291 17.1387 65.6824 16.968C65.7464 16.7867 65.7784 16.6107 65.7784 16.44C65.7784 16.2053 65.7197 16.008 65.6024 15.848C65.4957 15.688 65.3464 15.5547 65.1544 15.448C64.9624 15.3307 64.7384 15.2347 64.4824 15.16C64.2371 15.0747 63.9811 14.9893 63.7144 14.904C63.4584 14.8293 63.1864 14.7387 62.8984 14.632C62.6211 14.5253 62.3651 14.376 62.1304 14.184C61.8957 13.992 61.6984 13.752 61.5384 13.464C61.3891 13.1653 61.3144 12.7867 61.3144 12.328C61.3144 11.6453 61.4851 11.0747 61.8264 10.616C62.1784 10.1467 62.6157 9.768 63.1384 9.48C63.6717 9.192 64.2531 8.98933 64.8824 8.872C65.5117 8.744 66.1091 8.68 66.6744 8.68C67.4211 8.68 68.0611 8.77067 68.5944 8.952C69.1384 9.12267 69.5491 9.32533 69.8264 9.56L69.2344 11.784H66.5784ZM75.633 12.12H78.897L77.425 19H74.833L74.545 17.976H74.449C74.1717 18.3067 73.793 18.584 73.313 18.808C72.8437 19.0213 72.369 19.128 71.889 19.128C71.249 19.128 70.7477 18.968 70.385 18.648C70.0224 18.3173 69.841 17.8907 69.841 17.368C69.841 17.1013 69.8837 16.7707 69.969 16.376C70.065 15.9707 70.1504 15.592 70.225 15.24L70.897 12.12H74.145L73.345 15.864C73.3237 15.9493 73.3024 16.0507 73.281 16.168C73.2597 16.2853 73.2384 16.4027 73.217 16.52C73.1957 16.6267 73.1744 16.7333 73.153 16.84C73.1424 16.936 73.137 17.016 73.137 17.08C73.137 17.24 73.169 17.3787 73.233 17.496C73.3077 17.6027 73.4357 17.656 73.617 17.656C73.809 17.656 73.9904 17.592 74.161 17.464C74.3317 17.336 74.465 17.2133 74.561 17.096L75.633 12.12ZM80.3204 12.12H82.9284L83.1684 13.32H83.2804C83.5257 12.936 83.8404 12.6107 84.2244 12.344C84.6084 12.0773 85.1151 11.944 85.7444 11.944C85.7871 11.944 85.8511 11.9493 85.9364 11.96C86.0324 11.96 86.1337 11.976 86.2404 12.008C86.3577 12.0293 86.4751 12.0667 86.5924 12.12C86.7204 12.1627 86.8431 12.2267 86.9604 12.312L86.2564 15.608H84.5124C84.4911 14.9467 84.4324 14.488 84.3364 14.232C84.2404 13.9653 84.0857 13.832 83.8724 13.832C83.7657 13.832 83.6484 13.8587 83.5204 13.912C83.4031 13.9547 83.2804 14.056 83.1524 14.216L82.1284 19H78.8644L80.3204 12.12ZM87.5108 12.12H88.7428L88.8868 11.464C89.0255 10.824 89.2281 10.2853 89.4948 9.848C89.7615 9.4 90.0761 9.03733 90.4388 8.76C90.8121 8.48267 91.2335 8.28533 91.7028 8.168C92.1721 8.04 92.6735 7.976 93.2068 7.976C93.5375 7.976 93.8895 7.99733 94.2628 8.04C94.6361 8.08267 95.0255 8.152 95.4308 8.248L95.1748 9.528C94.9401 9.496 94.6895 9.47467 94.4228 9.464C94.1561 9.44267 93.9428 9.432 93.7828 9.432C93.5695 9.432 93.3828 9.448 93.2228 9.48C93.0735 9.512 92.9401 9.576 92.8228 9.672C92.7055 9.75733 92.6041 9.88 92.5188 10.04C92.4335 10.2 92.3641 10.4133 92.3108 10.68L92.0068 12.12H93.6868L93.4788 13.192H91.7828L90.5508 19H87.2868L88.5188 13.192H87.2708L87.5108 12.12Z" fill="#FFF9F5"/>
<defs>
<linearGradient id="paint0_linear_93_65" x1="1.14863e-07" y1="16.9091" x2="37.2517" y2="16.9091" gradientUnits="userSpaceOnUse">
<stop stop-color="#5BE2FF"/>
<stop offset="1" stop-color="#257CFF"/>
</linearGradient>
<linearGradient id="paint1_linear_93_65" x1="0.497119" y1="9.50907" x2="37.5413" y2="10.3987" gradientUnits="userSpaceOnUse">
<stop stop-color="#257CFF"/>
<stop offset="1" stop-color="#5BE2FF"/>
</linearGradient>
<linearGradient id="paint2_linear_93_65" x1="1.09532" y1="2.68944" x2="38.1395" y2="3.5791" gradientUnits="userSpaceOnUse">
<stop stop-color="#5BE2FF"/>
<stop offset="1" stop-color="#257CFF"/>
</linearGradient>
<linearGradient id="paint3_linear_93_65" x1="1.14863e-07" y1="29.3636" x2="37.2517" y2="29.3636" gradientUnits="userSpaceOnUse">
<stop stop-color="#5BE2FF"/>
<stop offset="1" stop-color="#257CFF"/>
</linearGradient>
<linearGradient id="paint4_linear_93_65" x1="1.14863e-07" y1="23.3636" x2="37.2517" y2="23.3636" gradientUnits="userSpaceOnUse">
<stop stop-color="#257CFF"/>
<stop offset="1" stop-color="#5BE2FF"/>
</linearGradient>
<clipPath id="clip0_93_65">
<rect x="4" y="3" width="23" height="23" rx="11.5" fill="white"/>
</clipPath>
</defs>
</svg>
