<svg width="24" height="24" viewBox="0 0 24 24" fill="none" xmlns="http://www.w3.org/2000/svg">
<path d="M10.11 11.15H7.46001C6.83001 11.15 6.32001 11.66 6.32001 12.29V17.41H10.11V11.15Z" stroke="white" stroke-width="1.5" stroke-miterlimit="10" stroke-linecap="round" stroke-linejoin="round"/>
<path d="M12.761 6.60001H11.241C10.611 6.60001 10.101 7.11001 10.101 7.74001V17.4H13.891V7.74001C13.891 7.11001 13.391 6.60001 12.761 6.60001ZM16.548 12.85H13.898V17.4H17.688V13.99C17.678 13.36 17.168 12.85 16.548 12.85Z" stroke="white" stroke-width="1.5" stroke-miterlimit="10" stroke-linecap="round" stroke-linejoin="round"/>
<path d="M9 22H15C20 22 22 20 22 15V9C22 4 20 2 15 2H9C4 2 2 4 2 9V15C2 20 4 22 9 22Z" stroke="white" stroke-width="1.5" stroke-linecap="round" stroke-linejoin="round"/>
</svg>
