<svg width="62" height="62" viewBox="0 0 62 62" fill="none" xmlns="http://www.w3.org/2000/svg">
<g clip-path="url(#clip0_41_46)">
<g clip-path="url(#clip1_41_46)">
<path d="M-5 22.246C-5 21.8034 -4.70915 21.4135 -4.28497 21.2874L8.37053 17.525C11.7178 16.5298 15.2822 16.5298 18.6295 17.525L26.8705 19.975C30.2178 20.9702 33.7822 20.9702 37.1295 19.975L45.2994 17.5461C48.6911 16.5378 52.3048 16.5515 55.6888 17.5855L67.7922 21.2837C68.2128 21.4122 68.5 21.8004 68.5 22.2401V31.1126C68.5 31.7951 67.8313 32.2771 67.1838 32.0613L56.1151 28.3717C52.4678 27.1559 48.527 27.1399 44.8699 28.326L37.0869 30.8502C33.7673 31.9268 30.2064 32.0152 26.8375 31.1047L18.1964 28.7693C15.1206 27.938 11.8794 27.938 8.80364 28.7693L-3.73909 32.1592C-4.37471 32.331 -5 31.8523 -5 31.1939L-5 22.246Z" fill="url(#paint0_linear_41_46)"/>
<path d="M-3.93844 8.32818C-3.92738 7.88579 -3.62688 7.50328 -3.19968 7.38781L9.5459 3.94281C12.917 3.03164 16.4803 3.12072 19.8016 4.19918L27.9789 6.85442C31.3002 7.93288 34.8635 8.02196 38.2346 7.1108L46.4627 4.88684C49.8785 3.96356 53.4908 4.06754 56.8478 5.18579L68.8551 9.18538C69.2723 9.32435 69.5497 9.71953 69.5388 10.1591L69.317 19.0288C69.3 19.7112 68.6194 20.1763 67.9775 19.9443L57.0045 15.9793C53.3887 14.6728 49.4495 14.5583 45.7639 15.6526L37.9203 17.9815C34.5749 18.9748 31.0128 18.9742 27.6677 17.9798L19.0877 15.4292C16.0337 14.5213 12.7934 14.4403 9.69786 15.1944L-2.92566 18.2698C-3.56538 18.4257 -4.17851 17.9315 -4.16205 17.2733L-3.93844 8.32818Z" fill="url(#paint1_linear_41_46)"/>
<path d="M-2.74374 -4.75599C-2.73268 -5.19838 -2.43217 -5.58089 -2.00498 -5.69636L10.7406 -9.14136C14.1117 -10.0525 17.675 -9.96345 20.9963 -8.88498L29.1736 -6.22975C32.4949 -5.15128 36.0583 -5.06221 39.4293 -5.97337L47.6574 -8.19733C51.0732 -9.12061 54.6855 -9.01662 58.0425 -7.89838L70.0498 -3.89879C70.467 -3.75982 70.7444 -3.36464 70.7335 -2.92505L70.5117 5.94467C70.4947 6.62702 69.8141 7.09212 69.1722 6.86017L58.1992 2.89514C54.5834 1.58859 50.6442 1.4741 46.9586 2.56842L39.115 4.89734C35.7696 5.89066 32.2075 5.89007 28.8624 4.89564L20.2824 2.34499C17.2284 1.43711 13.9881 1.35611 10.8926 2.11026L-1.73096 5.18568C-2.37067 5.34153 -2.98381 4.84732 -2.96735 4.1891L-2.74374 -4.75599Z" fill="url(#paint2_linear_41_46)"/>
<path d="M-5 48.246C-5 47.8034 -4.70915 47.4135 -4.28497 47.2874L8.37053 43.525C11.7178 42.5298 15.2822 42.5298 18.6295 43.525L26.8705 45.975C30.2178 46.9702 33.7822 46.9702 37.1295 45.975L45.2994 43.5461C48.6911 42.5378 52.3048 42.5515 55.6888 43.5855L67.7922 47.2837C68.2128 47.4122 68.5 47.8004 68.5 48.2401V57.1126C68.5 57.7951 67.8313 58.2771 67.1838 58.0613L56.1151 54.3717C52.4678 53.1559 48.527 53.1399 44.8699 54.326L37.0869 56.8502C33.7673 57.9268 30.2064 58.0152 26.8375 57.1047L18.1964 54.7693C15.1206 53.938 11.8794 53.938 8.80364 54.7693L-3.73909 58.1592C-4.37471 58.331 -5 57.8523 -5 57.1939L-5 48.246Z" fill="url(#paint3_linear_41_46)"/>
<path d="M-5 35.246C-5 34.8034 -4.70915 34.4135 -4.28497 34.2874L8.37053 30.525C11.7178 29.5298 15.2822 29.5298 18.6295 30.525L26.8705 32.975C30.2178 33.9702 33.7822 33.9702 37.1295 32.975L45.2994 30.5461C48.6911 29.5378 52.3048 29.5515 55.6888 30.5855L67.7922 34.2837C68.2128 34.4122 68.5 34.8004 68.5 35.2401V44.1126C68.5 44.7951 67.8313 45.2771 67.1838 45.0613L56.1151 41.3717C52.4678 40.1559 48.527 40.1399 44.8699 41.326L37.0869 43.8502C33.7673 44.9268 30.2064 45.0152 26.8375 44.1047L18.1964 41.7693C15.1206 40.938 11.8794 40.938 8.80364 41.7693L-3.73909 45.1592C-4.37471 45.331 -5 44.8523 -5 44.1939L-5 35.246Z" fill="url(#paint4_linear_41_46)"/>
<path d="M-5 61.246C-5 60.8034 -4.70915 60.4135 -4.28497 60.2874L8.37053 56.525C11.7178 55.5298 15.2822 55.5298 18.6295 56.525L26.8705 58.975C30.2178 59.9702 33.7822 59.9702 37.1295 58.975L45.2994 56.5461C48.6911 55.5378 52.3048 55.5515 55.6888 56.5855L67.7922 60.2837C68.2128 60.4122 68.5 60.8004 68.5 61.2401V70.1126C68.5 70.7951 67.8313 71.2771 67.1838 71.0613L56.1151 67.3717C52.4678 66.1559 48.527 66.1399 44.8699 67.326L37.0869 69.8502C33.7673 70.9268 30.2064 71.0152 26.8375 70.1047L18.1964 67.7693C15.1206 66.938 11.8794 66.938 8.80364 67.7693L-3.73909 71.1592C-4.37471 71.331 -5 70.8523 -5 70.1939L-5 61.246Z" fill="url(#paint5_linear_41_46)"/>
</g>
</g>
<defs>
<linearGradient id="paint0_linear_41_46" x1="-5" y1="25" x2="69" y2="25" gradientUnits="userSpaceOnUse">
<stop stop-color="#5BE2FF"/>
<stop offset="1" stop-color="#257CFF"/>
</linearGradient>
<linearGradient id="paint1_linear_41_46" x1="-4.00726" y1="11.0814" x2="69.9696" y2="12.9307" gradientUnits="userSpaceOnUse">
<stop stop-color="#257CFF"/>
<stop offset="1" stop-color="#5BE2FF"/>
</linearGradient>
<linearGradient id="paint2_linear_41_46" x1="-2.81256" y1="-2.00281" x2="71.1643" y2="-0.153497" gradientUnits="userSpaceOnUse">
<stop stop-color="#5BE2FF"/>
<stop offset="1" stop-color="#257CFF"/>
</linearGradient>
<linearGradient id="paint3_linear_41_46" x1="-5" y1="51" x2="69" y2="51" gradientUnits="userSpaceOnUse">
<stop stop-color="#5BE2FF"/>
<stop offset="1" stop-color="#257CFF"/>
</linearGradient>
<linearGradient id="paint4_linear_41_46" x1="-5" y1="38" x2="69" y2="38" gradientUnits="userSpaceOnUse">
<stop stop-color="#257CFF"/>
<stop offset="1" stop-color="#5BE2FF"/>
</linearGradient>
<linearGradient id="paint5_linear_41_46" x1="-5" y1="64" x2="69" y2="64" gradientUnits="userSpaceOnUse">
<stop stop-color="#257CFF"/>
<stop offset="1" stop-color="#5BE2FF"/>
</linearGradient>
<clipPath id="clip0_41_46">
<rect width="62" height="62" rx="5" fill="white"/>
</clipPath>
<clipPath id="clip1_41_46">
<rect width="62" height="61" rx="30.5" fill="white"/>
</clipPath>
</defs>
</svg>
